<svg data-v-423bf9ae="" xmlns="http://www.w3.org/2000/svg" viewBox="0 0 455 112" class="iconLeft"><!----><!----><!----><g data-v-423bf9ae="" id="fd2d44cd-c924-492f-9d5b-79949221e99d" fill="#6A964B" transform="matrix(4.559270569581267,0,0,4.559270569581267,124.11347615194992,22.956771449600275)"><path d="M8.19 5.57C8.19 7.53 7.39 8.88 5.52 8.88C3.77 8.88 2.83 7.55 2.83 5.56C2.83 3.54 3.74 2.34 5.53 2.34C7.27 2.34 8.19 3.56 8.19 5.57ZM10.47 5.57C10.47 2.51 8.71 0.57 5.52 0.57C2.42 0.57 0.56 2.46 0.56 5.59C0.56 8.51 2.23 10.64 5.50 10.64C8.62 10.64 10.47 8.62 10.47 5.57ZM19.38 6.71C19.38 4.48 18.56 2.86 16.59 2.86C15.40 2.86 14.53 3.28 14.18 4.33C14.18 3.84 14.14 3.40 14.11 3.00L11.97 3.00C12.00 3.37 12.04 3.98 12.04 4.76L12.04 13.73L14.21 13.73L14.21 10.47C14.21 10.04 14.18 9.55 14.15 9.24C14.63 10.37 15.62 10.64 16.46 10.64C18.45 10.64 19.38 9.13 19.38 6.71ZM17.09 6.73C17.09 8.44 16.55 9.13 15.67 9.13C15.01 9.13 14.18 8.67 14.18 6.75C14.18 4.89 14.97 4.40 15.67 4.40C16.59 4.40 17.09 5.05 17.09 6.73ZM24.01 10.64C26.32 10.64 27.05 9.55 27.33 8.33L25.26 8.20C25.13 8.93 24.77 9.24 24.08 9.24C23.03 9.24 22.69 8.30 22.69 7.35L22.69 7.15L27.44 7.15C27.44 7.15 27.47 6.83 27.47 6.50C27.47 4.41 26.61 2.86 24.02 2.86C22.02 2.86 20.37 3.78 20.37 6.71C20.37 9.35 21.67 10.64 24.01 10.64ZM23.98 4.17C24.74 4.17 25.21 4.56 25.21 5.87L25.21 5.89L22.69 5.89C22.74 4.56 23.27 4.17 23.98 4.17ZM33.35 10.50L35.55 10.50L35.55 6.27C35.55 5.14 36.05 4.52 36.75 4.52C37.51 4.52 37.73 5.04 37.73 5.99L37.73 10.50L39.97 10.50L39.97 5.61C39.97 4.00 39.37 2.86 37.73 2.86C36.67 2.86 35.78 3.42 35.45 4.59C35.24 3.67 34.71 2.86 33.32 2.86C32.28 2.86 31.47 3.39 31.12 4.52C31.09 3.93 31.04 3.18 31.02 3.00L28.90 3.00C28.92 3.28 28.97 4.05 28.97 4.69L28.97 10.50L31.16 10.50L31.16 6.36C31.16 5.11 31.65 4.52 32.35 4.52C33.11 4.52 33.35 5.04 33.35 6.06ZM46.65 6.75C46.65 8.41 46.14 9.18 45.08 9.18C44.13 9.18 43.55 8.33 43.55 6.75C43.55 5.17 44.06 4.38 45.12 4.38C46.09 4.38 46.65 5.18 46.65 6.75ZM48.87 6.73C48.87 4.45 47.78 2.86 45.11 2.86C42.55 2.86 41.31 4.47 41.31 6.73C41.31 9.09 42.56 10.64 45.07 10.64C47.63 10.64 48.87 9.10 48.87 6.73ZM56.20 8.19C56.20 6.68 55.08 6.19 53.54 5.84C52.07 5.50 51.90 5.26 51.90 4.83C51.90 4.49 52.16 4.21 52.84 4.21C53.47 4.21 53.94 4.52 53.97 5.11L56.00 4.97C55.83 3.75 54.70 2.86 52.91 2.86C50.95 2.86 49.91 3.77 49.91 5.11C49.91 6.34 50.53 7.08 52.42 7.52C53.63 7.80 54.00 7.99 54.00 8.50C54.00 8.96 53.66 9.24 52.92 9.24C52.05 9.24 51.73 8.72 51.67 8.22L49.69 8.44C49.85 9.59 50.69 10.64 52.95 10.64C55.10 10.64 56.20 9.73 56.20 8.19ZM60.69 10.64C62.89 10.64 63.95 9.35 64.12 7.88L61.98 7.80C61.88 8.75 61.39 9.17 60.73 9.17C59.79 9.17 59.35 8.39 59.35 6.71C59.35 5.12 59.75 4.37 60.69 4.37C61.43 4.37 61.84 4.84 61.92 5.63L64.08 5.53C63.90 4.09 62.80 2.86 60.69 2.86C58.34 2.86 57.06 4.28 57.06 6.78C57.06 9.14 58.25 10.64 60.69 10.64ZM70.22 6.75C70.22 8.41 69.72 9.18 68.66 9.18C67.70 9.18 67.13 8.33 67.13 6.75C67.13 5.17 67.63 4.38 68.70 4.38C69.66 4.38 70.22 5.18 70.22 6.75ZM72.45 6.73C72.45 4.45 71.36 2.86 68.68 2.86C66.12 2.86 64.89 4.47 64.89 6.73C64.89 9.09 66.14 10.64 68.64 10.64C71.20 10.64 72.45 9.10 72.45 6.73Z"></path></g><!----><g data-v-423bf9ae="" id="924c7c9b-7e2e-47c1-ab5d-4fbd62858306" transform="matrix(1.1111111111111112,0,0,1.1111111111111112,-1.5555555555555571,0.44444444444444287)" stroke="none" fill="#6A964B"><path d="M54 45.452V100h8V77h10v23h26V28.488L54 45.452zM72 68H62V53h10v15zm19 24H81V77h10v15zm0-24H81V53h10v15zM2 0v100h29V77h10v23h9V0H2zm19 92H11V77h10v15zm0-24H11V53h10v15zm0-23H11V30h10v15zm0-23H11V7h10v15zm20 46H31V53h10v15zm0-23H31V30h10v15zm0-23H31V7h10v15z"></path></g><!----></svg>